# xmcd
#
# Track frame offsets:
#	150
#	17460
#	31372
#	45129
#	59849
#	72406
#	88630
#	105505
#	123484
#	137942
#	150329
#	164655
#	184361
#	203542
#	221298
#
# Disc length: 3155 seconds
#
# Revision: 4
# Processed by: cddbd v1.5.1PL0 Copyright (c) Steve Scherf et al.
# Submitted via: audiograbber 1.83.01
#
DISCID=cb0c510f
DTITLE=1997-01 Country Radio - 1997-01 Country Radio
DYEAR=1997
DGENRE=Country
TTITLE0=Leann Rimes - Unchained Melody
TTITLE1=Alan Jackson - Everything I Love
TTITLE2=Martina Mcbride - Cry On The Shoulder Of The Road
TTITLE3=Cledus T Judd - Cledus Went Down To Florida
TTITLE4=Regina Regina - More Than I Wanted To Know
TTITLE5=Kippi Brannon - Daddy's Little Girl
TTITLE6=Trace Adkins - This Ain't No Thinkin' Thing
TTITLE7=Buffalo Club - If She Don't Love You
TTITLE8=Noel Haggard - One Lifetime
TTITLE9=Florida Outbound - Mr. Right Now
TTITLE10=Jim Auston - Man In The Mirror
TTITLE11=Brent Lamb - Love Lives On
TTITLE12=John Keaton - Morning And Night
TTITLE13=Bryan Smith - Jack Of All Trades
TTITLE14=Great Plains - Wolverton Mountain
EXTD=
EXTT0=
EXTT1=
EXTT2=
EXTT3=
EXTT4=
EXTT5=
EXTT6=
EXTT7=
EXTT8=
EXTT9=
EXTT10=
EXTT11=
EXTT12=
EXTT13=
EXTT14=
PLAYORDER=
